<svg width="85" height="104" viewBox="0 0 85 104" fill="none" xmlns="http://www.w3.org/2000/svg">
<path d="M40.7351 0.34221L4.76787 12.7575C2.25947 13.6233 0.576416 15.986 0.576416 18.6401V62.3105C0.576416 81.9543 30.5586 98.4612 39.9745 103.162C41.7331 104.039 43.7991 104.034 45.5523 103.149C54.9575 98.3991 84.9585 81.725 84.9585 62.3105V18.6401C84.9585 15.986 83.2755 13.6233 80.7671 12.7575L44.7971 0.33951C43.4809 -0.11362 42.0513 -0.113618 40.7351 0.34221Z" fill="#0F0B5E"/>
<path d="M74.097 41.5341C70.5934 33.8579 69.4309 33.3805 66.8874 30.9125L60.2631 24.1587C58.2024 22.1601 58.4532 20.3799 55.5241 20.3125H42.7663H30.0085C27.0767 20.3799 27.3275 22.1601 25.2695 24.1587L18.6452 30.9125C16.1017 33.3832 14.9392 33.8579 11.4356 41.5341C7.93189 49.2104 8.50369 54.9069 10.1463 60.4388C11.7889 65.9708 12.0991 66.2243 12.5576 68.1232C13.4288 65.3343 15.3276 65.5608 15.9264 68.6572C19.8994 84.0043 37.8196 83.1709 39.4407 84.0852C40.6085 84.7434 41.771 85.62 42.7528 86.9955C42.7555 87.0009 42.7609 87.009 42.7636 87.0144C42.7636 87.0144 42.7636 87.0117 42.7663 87.0117C42.7663 87.0117 42.7663 87.0144 42.769 87.0144C42.7717 87.0063 42.7771 87.0009 42.7798 86.9955C43.7616 85.62 44.9214 84.7434 46.092 84.0852C47.713 83.1709 65.6332 84.0043 69.6062 68.6572C70.205 65.5635 72.1038 65.3343 72.975 68.1232C73.4335 66.227 73.7437 65.9708 75.3863 60.4388C77.0262 54.9069 77.6007 49.2104 74.097 41.5341Z" fill="#3A388C"/>
<path d="M48.3467 40.3094C48.4115 40.5846 48.4897 40.9001 48.576 41.2427C50.375 41.24 52.8403 39.8833 54.2563 38.0708C54.9387 37.1969 55.2543 36.3688 55.23 35.708L48.3467 40.3094Z" fill="white"/>
<path d="M38.1673 41.2346C38.259 40.919 38.3534 40.6034 38.4478 40.2906L31.3272 35.5381C31.2328 36.2232 31.543 37.1214 32.2874 38.0735C33.7547 39.9507 36.3575 41.3398 38.1673 41.2346Z" fill="white"/>
<path d="M70.6579 52.1664L66.4287 34.4565C66.1859 33.2131 65.6545 32.0479 64.8912 31.0284C68.0308 30.5537 70.4259 28.0102 70.4259 24.9408C70.4259 24.6657 70.4043 24.3987 70.3666 24.1343C69.1582 22.8801 67.4104 22.0898 65.463 22.0898C64.4003 22.0898 63.397 22.3272 62.5096 22.7426C62.5096 22.7911 62.5069 22.837 62.5069 22.837L62.5501 30.818C62.3397 31.5247 62.1266 32.1963 61.838 33.1673C60.5973 37.3237 58.3829 38.942 52.4733 40.6304C55.4699 44.865 58.8064 49.3127 60.0983 52.5764C62.159 57.7712 61.9648 63.0118 59.9014 67.2977L67.9715 59.9856C70.2128 57.9546 71.2189 55.0254 70.6579 52.1664Z" fill="#584DBC"/>
<path d="M26.7396 52.2821C28.2311 48.6382 31.3761 45.148 34.2621 40.8163C29.5231 39.6376 26.4968 38.5291 25.3208 34.7934C24.8137 33.1859 24.3606 31.6647 24.2339 30.8043L24.2824 23.3087C23.1469 22.4429 21.6958 21.9224 20.1152 21.9224C18.1732 21.9224 16.4281 22.7072 15.2198 23.9588C15.182 24.215 15.1577 24.4766 15.1523 24.7436C15.1038 27.8913 17.6742 30.486 20.9325 30.8609C20.0127 31.9829 19.3897 33.3046 19.1388 34.7206L15.2818 52.5087C14.7882 55.2679 15.7511 58.0784 17.8657 60.0689L24.9972 66.7796C25.8468 67.578 26.6775 68.3305 27.6 68.8942C24.8515 64.9104 23.8212 59.4054 26.7396 52.2821Z" fill="#584DBC"/>
<path d="M70.372 24.1371C69.9647 21.0973 67.192 18.7427 63.8286 18.7427C61.9001 18.7427 60.1658 19.5168 58.9601 20.7494L58.863 20.6928C57.7464 19.4628 56.1658 18.7615 54.5043 18.7615H42.9792H30.9092C29.2909 18.7615 27.7481 19.4359 26.6476 20.6145C25.4393 19.3603 23.6915 18.5728 21.7468 18.5728C18.3834 18.5728 15.6106 20.9247 15.2034 23.9672C16.4117 22.7103 18.1622 21.92 20.1123 21.92C21.6928 21.92 23.1439 22.4405 24.2795 23.3063L24.2309 30.8019L38.4452 40.2906C36.6839 46.1679 35.187 52.1664 33.6846 55.8346C30.8148 62.842 31.9234 67.2654 35.81 69.3746C35.8181 69.4717 35.8289 69.5688 35.8478 69.6686C36.3495 72.2525 39.1815 74.8904 43.2732 74.8904C47.3649 74.8904 49.965 72.32 50.6635 69.6686C50.6662 69.6605 50.6662 69.6497 50.6689 69.6416C56.6055 67.1494 55.2542 61.1913 53.0074 55.5272C51.5374 51.8185 49.1072 43.5327 48.3466 40.3095L62.5501 30.8181L62.507 22.837L62.4207 22.7858C63.3323 22.3407 64.3653 22.0899 65.4631 22.0899C67.4132 22.0899 69.1637 22.8802 70.372 24.1371Z" fill="#8876F4"/>
<path d="M43.9745 60.3118C47.3217 60.3334 50.3723 60.6273 49.7978 64.7837C49.4687 67.1708 48.3035 67.5052 45.8895 66.6394C44.6191 66.1836 45.3123 68.2631 42.963 68.2604C41.0723 68.2604 41.6306 66.4776 40.5032 66.7527C38.3023 67.2922 36.9914 67.3245 36.7298 64.7811C36.3144 60.7191 39.2436 60.3414 42.5827 60.3091L43.9745 60.3118Z" fill="#0F0B5E"/>
<path d="M38.421 40.3416C38.421 40.3416 40.5842 41.1696 43.3839 41.1696C46.1836 41.1696 48.3467 40.3092 48.3467 40.3092C48.3467 40.3092 45.0427 39.2384 43.3839 36.1582C42.1027 38.6639 38.421 40.3416 38.421 40.3416Z" fill="#584DBC"/>
</svg>
