<svg width="46" height="47" viewBox="0 0 46 47" fill="none" xmlns="http://www.w3.org/2000/svg">
<path d="M45.2308 23.7204C45.2308 10.9586 35.1068 0.615479 22.6154 0.615479C10.1239 0.615479 0 10.9586 0 23.7204C0 34.5509 7.30583 43.6485 17.1559 46.1485V30.7783H12.4915V23.7204H17.1559V20.6789C17.1559 12.8178 20.6365 9.17154 28.1986 9.17154C29.6297 9.17154 32.1032 9.46035 33.1192 9.74916V16.1391C32.5891 16.085 31.6615 16.0489 30.5043 16.0489C26.7939 16.0489 25.3628 17.4839 25.3628 21.2114V23.7204H32.7481L31.476 30.7783H25.354V46.6539C36.5556 45.2731 45.2308 35.5347 45.2308 23.7204Z" fill="#CECED0"/>
</svg>
