<svg width="48" height="48" viewBox="0 0 48 48" fill="none" xmlns="http://www.w3.org/2000/svg">
<path d="M44.5962 0H3.7394C1.86729 0 0.346191 1.54237 0.346191 3.43576V44.2181C0.346191 46.1115 1.86729 47.6538 3.7394 47.6538H44.5962C46.4683 47.6538 48 46.1115 48 44.2181V3.43576C48 1.54237 46.4683 0 44.5962 0ZM14.7487 40.8462H7.68573V18.1042H14.7594V40.8462H14.7487ZM11.2172 14.9982C8.95154 14.9982 7.12197 13.158 7.12197 10.9029C7.12197 8.6479 8.95154 6.80769 11.2172 6.80769C13.4723 6.80769 15.3125 8.6479 15.3125 10.9029C15.3125 13.1686 13.4829 14.9982 11.2172 14.9982ZM41.2243 40.8462H34.1613V29.7837C34.1613 27.1457 34.1081 23.7525 30.4915 23.7525C26.8111 23.7525 26.2473 26.6245 26.2473 29.5922V40.8462H19.1844V18.1042H25.9601V21.2102H26.0559C27.0026 19.4232 29.3108 17.5404 32.7466 17.5404C39.8946 17.5404 41.2243 22.2526 41.2243 28.3796V40.8462Z" fill="#CECED0"/>
</svg>
