<svg width="25" height="25" viewBox="0 0 25 25" fill="none"
    xmlns="http://www.w3.org/2000/svg">
    <g clip-path="url(#clip0_54968_17061)">
        <path d="M24.2178 11.7192H14.3222C13.891 11.7192 13.541 11.3692 13.541 10.9379C13.541 10.5067 13.891 10.1567 14.3222 10.1567H24.2178C24.6491 10.1567 24.9991 10.5067 24.9991 10.9379C24.9991 11.3692 24.6491 11.7192 24.2178 11.7192Z" fill="#5F3ECC"/>
        <path d="M20.3123 15.6253C20.1122 15.6253 19.9123 15.5492 19.7601 15.3962C19.455 15.0909 19.455 14.5961 19.7601 14.2909L23.1143 10.937L19.7601 7.58282C19.455 7.27765 19.455 6.7829 19.7601 6.47773C20.0655 6.17238 20.5602 6.17238 20.8654 6.47773L24.7715 10.3839C25.0767 10.689 25.0767 11.1838 24.7715 11.4889L20.8654 15.3951C20.7122 15.5492 20.5124 15.6253 20.3123 15.6253Z" fill="#5F3ECC"/>
        <path d="M8.33314 25C8.11017 25 7.89866 24.9687 7.68733 24.9031L1.41864 22.8146C0.565702 22.5167 0 21.7219 0 20.8335V2.0841C0 0.935153 0.934381 0.000772238 2.08333 0.000772238C2.3061 0.000772238 2.51762 0.0320518 2.72914 0.0976625L8.99764 2.18614C9.85077 2.48406 10.4163 3.27883 10.4163 4.16725V22.9167C10.4163 24.0656 9.48209 25 8.33314 25ZM2.08333 1.56322C1.79686 1.56322 1.56245 1.79763 1.56245 2.0841V20.8335C1.56245 21.0553 1.71141 21.2615 1.92388 21.3355L8.1632 23.4147C8.20802 23.4291 8.26638 23.4375 8.33314 23.4375C8.61961 23.4375 8.85383 23.2031 8.85383 22.9167V4.16725C8.85383 3.94543 8.70487 3.73925 8.49239 3.66525L2.25308 1.58611C2.20826 1.57162 2.1499 1.56322 2.08333 1.56322Z" fill="#5F3ECC"/>
        <path d="M15.8845 8.33391C15.4533 8.33391 15.1033 7.98392 15.1033 7.55268V2.86533C15.1033 2.14762 14.5191 1.56322 13.8014 1.56322H2.08298C1.65175 1.56322 1.30176 1.21324 1.30176 0.781998C1.30176 0.35076 1.65175 0.000772238 2.08298 0.000772238H13.8014C15.3816 0.000772238 16.6657 1.28514 16.6657 2.86533V7.55268C16.6657 7.98392 16.3157 8.33391 15.8845 8.33391Z" fill="#5F3ECC"/>
        <path d="M13.8014 21.8751H9.63474C9.2035 21.8751 8.85352 21.5251 8.85352 21.0939C8.85352 20.6626 9.2035 20.3126 9.63474 20.3126H13.8014C14.5191 20.3126 15.1033 19.7282 15.1033 19.0105V14.3232C15.1033 13.8919 15.4533 13.542 15.8845 13.542C16.3158 13.542 16.6658 13.8919 16.6658 14.3232V19.0105C16.6658 20.5907 15.3816 21.8751 13.8014 21.8751Z" fill="#5F3ECC"/>
    </g>
    <defs>
        <clipPath id="clip0_54968_17061">
            <rect width="25" height="25" fill="white"/>
        </clipPath>
    </defs>
</svg>
